<svg xmlns="http://www.w3.org/2000/svg" xmlns:xlink="http://www.w3.org/1999/xlink" width="192" zoomAndPan="magnify" viewBox="0 0 144 143.999998" height="192" preserveAspectRatio="xMidYMid meet" version="1.0"><defs><clipPath id="2fdeec20e5"><path d="M 30.238281 0 L 113 0 L 113 126 L 30.238281 126 Z M 30.238281 0 " clip-rule="nonzero"/></clipPath></defs><path fill="#010100" d="M 46.316406 134.246094 C 45.253906 133.640625 44.367188 133.8125 42.957031 134.074219 C 39.714844 134.734375 31.273438 136.484375 31.246094 140.847656 C 31.386719 142.714844 32.621094 143.976562 34.546875 143.691406 C 35.207031 143.605469 35.867188 143.519531 36.527344 143.488281 C 37.359375 143.460938 38.308594 143.488281 39.226562 143.347656 C 40.660156 143.117188 41.984375 142.511719 43.359375 142.082031 C 45.054688 141.59375 46.144531 141.453125 47.265625 139.902344 C 48.84375 137.804688 48.585938 135.652344 46.316406 134.246094 Z M 46.316406 134.246094 " fill-opacity="1" fill-rule="nonzero"/><g clip-path="url(#2fdeec20e5)"><path fill="#010100" d="M 111.777344 74.125 C 109.25 74.8125 109.164062 73.894531 109.136719 71.597656 C 108.9375 69.1875 108.765625 66.746094 109.367188 64.363281 C 109.855469 62.296875 109.566406 60.257812 109.453125 58.21875 C 109.597656 56.554688 110.285156 54.859375 109.855469 53.164062 C 109.339844 51.472656 108.878906 49.949219 108.9375 48.113281 C 108.851562 46.21875 108.277344 44.179688 107.703125 42.429688 C 107.128906 40.589844 106.066406 39.097656 105.089844 37.460938 C 104.257812 35.96875 103.480469 34.675781 102.589844 33.242188 C 101.300781 30.859375 100.695312 28.273438 98.429688 26.523438 C 91.96875 20.40625 88.265625 8.148438 84.101562 0.28125 C 83.84375 0.0234375 83.527344 0.136719 83.039062 0.683594 C 82.492188 1.285156 82.035156 2.089844 81.429688 3.007812 C 79.449219 6.394531 78.1875 8.492188 74.023438 9.039062 C 72.070312 9.4375 70.175781 9.039062 68.195312 8.777344 C 66.675781 8.605469 65.179688 8.777344 63.660156 8.921875 C 61.191406 9.296875 58.433594 8.117188 56.425781 9.871094 C 53.4375 13.058594 52.546875 12.367188 49.1875 14.292969 C 47.898438 15.007812 47.035156 16.300781 45.972656 17.21875 C 45.140625 17.964844 43.820312 18.109375 43.359375 19.199219 C 42.929688 20.261719 43.304688 21.957031 43.046875 23.277344 C 42.527344 23.851562 41.953125 24.484375 41.4375 24.65625 C 40.203125 25.085938 38.882812 25.085938 37.589844 25.34375 C 36.296875 25.601562 34.976562 26.234375 34.488281 27.441406 C 34 28.589844 34.460938 29.96875 35.265625 30.914062 C 35.667969 31.375 36.125 31.746094 36.613281 32.09375 C 37.273438 32.523438 38.078125 32.636719 38.851562 32.4375 C 39.167969 32.351562 39.570312 32.40625 39.859375 32.609375 C 40.402344 33.011719 40.660156 33.699219 41.179688 34.160156 C 41.292969 34.246094 41.378906 34.332031 41.496094 34.390625 C 42.039062 35.335938 43.015625 35.882812 44.105469 35.480469 C 46.949219 34.332031 47.378906 34.90625 48.960938 37.316406 C 52.175781 40.964844 48.441406 39.011719 46.546875 40.273438 C 45.542969 41.164062 47.953125 43.058594 48.671875 43.578125 C 49.160156 43.890625 49.707031 44.007812 50.25 44.0625 C 51.027344 44.179688 50.769531 45.355469 51.171875 46.015625 C 51.371094 46.589844 51.859375 46.933594 52.117188 47.421875 C 52.203125 47.652344 52.289062 48.082031 52.519531 48.34375 C 52.921875 48.859375 53.726562 49.230469 54.128906 49.777344 C 54.617188 50.554688 53.265625 51.386719 52.664062 51.386719 C 52.058594 51.386719 51.800781 50.753906 51.484375 50.292969 C 50.566406 48.484375 48.355469 47.824219 46.578125 47.222656 C 45.972656 46.992188 45.371094 46.90625 44.769531 46.90625 C 43.589844 46.074219 42.328125 44.78125 41.121094 46.332031 C 40.574219 47.050781 40.976562 47.507812 41.09375 48.113281 C 41.148438 48.429688 41.4375 49.75 41.09375 50.179688 C 40.519531 50.953125 39.3125 50.179688 38.796875 50.035156 C 38.019531 49.835938 37.445312 49.863281 36.585938 49.578125 C 35.78125 49.289062 35.550781 49.144531 34.777344 49.578125 C 33.886719 50.066406 33.945312 50.867188 33.371094 51.527344 C 32.851562 52.101562 32.046875 52.246094 31.53125 52.90625 C 30.382812 54.3125 30.238281 55.519531 31.332031 56.957031 C 31.960938 57.757812 32.308594 58.304688 33.398438 58.390625 C 34.230469 58.476562 35.121094 58.074219 35.925781 58.449219 C 36.816406 58.878906 36.957031 59.511719 37.992188 59.710938 C 38.796875 59.882812 39.285156 59.710938 39.3125 60.804688 C 39.3125 61.289062 38.765625 61.691406 39.113281 62.179688 C 39.339844 62.496094 40.144531 62.410156 40.488281 62.726562 C 41.148438 63.328125 41.378906 64.765625 41.464844 65.597656 C 41.550781 66.316406 41.035156 67.636719 41.351562 68.238281 C 41.636719 68.785156 42.699219 69.042969 43.160156 69.53125 C 43.53125 69.933594 43.707031 70.390625 43.933594 70.851562 C 43.933594 70.910156 43.964844 70.996094 43.992188 71.050781 C 44.28125 72.230469 44.59375 73.464844 44.738281 74.726562 C 45.742188 76.535156 48.011719 78.574219 49.964844 78.34375 C 50.28125 78.402344 50.539062 78.488281 50.769531 78.601562 C 50.855469 78.804688 50.394531 79.207031 50.25 79.695312 C 49.878906 80.324219 50.96875 81.648438 50.164062 81.503906 C 47.207031 80.8125 47.726562 81.648438 45.859375 83.714844 C 40.230469 88.910156 52.632812 85.292969 45.140625 88.96875 C 42.988281 90.058594 42.472656 92.644531 41.636719 94.710938 C 40.605469 96.75 40.117188 97.4375 41.609375 99.390625 C 41.722656 99.675781 41.78125 99.847656 41.753906 99.90625 C 41.667969 100.222656 41.523438 100.507812 41.4375 100.824219 C 41.4375 100.824219 41.4375 100.882812 41.4375 100.882812 C 41.121094 102.058594 40.375 103.09375 39.628906 104.097656 C 39.339844 103.554688 39.253906 102.863281 38.738281 102.519531 C 36.527344 101.113281 35.292969 105.589844 35.609375 106.882812 C 35.894531 108.003906 36.46875 109.007812 36.929688 110.042969 C 37.5625 111.476562 37.992188 113.113281 39.027344 114.234375 C 38.96875 114.605469 38.882812 114.953125 38.679688 115.265625 C 37.964844 116.386719 36.613281 117.074219 35.894531 118.167969 C 34.171875 121.871094 42.699219 121.210938 40.976562 115.785156 C 41.0625 115.066406 42.472656 116.644531 42.730469 117.160156 C 43.046875 117.59375 43.246094 118.136719 43.417969 118.742188 C 43.390625 118.972656 43.304688 119.230469 43.1875 119.457031 C 42.585938 120.664062 40.921875 121.09375 40.835938 122.703125 C 40.75 124.597656 41.925781 124.425781 43.160156 124.714844 C 44.222656 124.972656 44.679688 125.660156 45.742188 125.488281 C 47.378906 125.230469 48.125 123.765625 48.929688 122.503906 C 49.503906 122.558594 50.136719 122.589844 50.910156 122.503906 C 52.835938 121.984375 53.8125 121.554688 54.097656 119.488281 C 54.328125 118.796875 54.988281 117.878906 55.304688 117.105469 C 55.734375 115.984375 55.792969 114.722656 56.625 113.804688 C 57.832031 112.625 59.957031 110.960938 61.734375 111.105469 C 62.253906 111.160156 62.308594 111.449219 61.851562 111.9375 C 60.472656 113.402344 58.578125 114.980469 58.691406 117.277344 C 58.691406 118.570312 60.703125 119.34375 59.898438 117.421875 C 59.8125 116.761719 61.074219 117.421875 61.417969 117.507812 C 63.230469 118.308594 64.003906 118.367188 65.09375 116.617188 C 65.4375 116.1875 65.898438 115.839844 66.386719 115.554688 C 67.074219 115.007812 67.878906 114.980469 68.023438 114.40625 C 67.9375 114.003906 66.816406 113.371094 66.386719 112.941406 C 65.4375 112.109375 64.691406 110.585938 65.007812 109.382812 C 65.382812 108.03125 67.132812 107.628906 67.9375 108.777344 C 69.113281 110.730469 68.511719 113.628906 70.347656 115.324219 C 70.636719 115.613281 70.953125 115.871094 71.269531 116.15625 C 71.699219 115.957031 72.101562 115.667969 72.386719 115.410156 C 72.675781 115.179688 72.960938 114.921875 73.21875 114.636719 C 73.335938 114.089844 73.566406 113.515625 73.566406 112.914062 C 73.707031 111.734375 73.078125 110.214844 73.566406 109.09375 C 74.339844 108.894531 74.914062 110.789062 75.71875 111.246094 C 77.410156 112.511719 79.621094 111.246094 79.824219 109.179688 C 80.339844 107.398438 80.855469 106.453125 82.75 107.371094 C 83.382812 107.6875 83.671875 107.285156 83.785156 106.738281 C 84.128906 105.992188 84.933594 106.710938 85.507812 107.226562 C 86.65625 108.234375 87.289062 110.386719 89.011719 110.472656 C 89.816406 110.5 90.476562 108.234375 90.761719 108.949219 C 91.105469 109.523438 91.222656 110.644531 92.054688 110.730469 C 93.976562 110.671875 94.953125 108.347656 94.808594 106.652344 C 94.582031 104.183594 94.324219 102.003906 91.59375 104.128906 C 90.390625 105.160156 88.808594 105.21875 89.125 103.265625 C 89.5 101.429688 90.1875 101.800781 91.59375 101.484375 C 92.886719 99.964844 92.773438 99.675781 94.984375 99.878906 C 97.25 99.878906 97.941406 99.847656 99.75 101.285156 C 100.984375 102.089844 103.109375 101.859375 104.3125 101.746094 C 105.75 101.570312 103.769531 100.222656 105.289062 98.269531 C 106.207031 96.546875 107.328125 94.769531 108.160156 93.046875 C 108.734375 91.898438 108.648438 90.316406 109.109375 89.199219 C 109.367188 88.824219 109.824219 88.996094 110.140625 88.566406 C 110.746094 87.617188 110.601562 86.355469 110.859375 85.265625 C 111.433594 82.9375 111.980469 80.125 112.238281 77.769531 C 112.382812 76.707031 113.757812 73.808594 111.894531 74.125 Z M 111.777344 74.125 " fill-opacity="1" fill-rule="nonzero"/></g><path fill="#010100" d="M 59.4375 120.292969 C 58.863281 120.0625 58.203125 120.175781 57.574219 120.292969 L 57.574219 120.40625 C 57.226562 120.292969 56.824219 120.605469 56.769531 120.980469 C 56.710938 121.355469 56.914062 121.753906 57.226562 121.984375 C 57.542969 122.214844 57.917969 122.328125 58.289062 122.386719 C 59.007812 122.53125 59.984375 122.445312 60.242188 121.753906 C 60.472656 121.179688 60.011719 120.492188 59.410156 120.261719 Z M 59.4375 120.292969 " fill-opacity="1" fill-rule="nonzero"/></svg>